<svg width="32" height="32" viewBox="0 0 32 32" fill="none" xmlns="http://www.w3.org/2000/svg">
<path d="M32 16C32 24.8366 24.8366 32 16 32C7.16344 32 0 24.8366 0 16C0 7.16344 7.16344 0 16 0C24.8366 0 32 7.16344 32 16Z" fill="#0079FB"/>
<rect x="5.9259" y="6.51852" width="20.1481" height="19.8519" fill="white"/>
<path d="M25.251 4.74074H7.04528C5.60182 4.74074 4.44446 5.86667 4.44446 7.2428V24.7572C4.44446 26.1333 5.60182 27.2593 7.04528 27.2593H25.251C26.6945 27.2593 27.8519 26.1333 27.8519 24.7572V7.2428C27.8519 5.86667 26.6945 4.74074 25.251 4.74074ZM16.6726 19.2486C14.9273 20.9276 12.1673 20.9276 10.4221 19.2486L7.99818 16.9167C7.47798 16.4163 7.47798 15.5837 7.99818 15.0833V15.0833C8.49018 14.61 9.26806 14.6094 9.76072 15.0821L11.2131 16.4754C12.5171 17.7264 14.5762 17.725 15.8785 16.4721L22.5299 10.0733C23.0251 9.59693 23.8085 9.59832 24.302 10.0764V10.0764C24.8207 10.5789 24.8192 11.4113 24.2988 11.912L16.6726 19.2486Z" fill="#0079FB"/>
</svg>
